<svg width="16" height="16" viewBox="0 0 16 16" fill="none" xmlns="http://www.w3.org/2000/svg">
<g clip-path="url(#clip0_353_14293)">
<mask id="mask0_353_14293" style="mask-type:luminance" maskUnits="userSpaceOnUse" x="0" y="0" width="16" height="16">
<path d="M16 0H0V16H16V0Z" fill="white"/>
</mask>
<g mask="url(#mask0_353_14293)">
<path d="M7.99974 15.75C12.2796 15.75 15.749 12.2802 15.749 8C15.749 3.71979 12.2796 0.25 7.99974 0.25C3.71991 0.25 0.250427 3.71979 0.250427 8C0.250427 12.2802 3.71991 15.75 7.99974 15.75Z" fill="url(#paint0_linear_353_14293)"/>
<path d="M7.99974 15.75C12.2796 15.75 15.749 12.2802 15.749 8C15.749 3.71979 12.2796 0.25 7.99974 0.25C3.71991 0.25 0.250427 3.71979 0.250427 8C0.250427 12.2802 3.71991 15.75 7.99974 15.75Z" fill="url(#paint1_radial_353_14293)"/>
<path d="M7.99974 15.75C12.2796 15.75 15.749 12.2802 15.749 8C15.749 3.71979 12.2796 0.25 7.99974 0.25C3.71991 0.25 0.250427 3.71979 0.250427 8C0.250427 12.2802 3.71991 15.75 7.99974 15.75Z" fill="url(#paint2_radial_353_14293)" fill-opacity="0.5"/>
<path d="M7 5H2C0.89543 5 0 5.89543 0 7V12C0 13.1046 0.89543 14 2 14H7C8.10457 14 9 13.1046 9 12V7C9 5.89543 8.10457 5 7 5Z" fill="url(#paint3_radial_353_14293)"/>
<path d="M7 5H2C0.89543 5 0 5.89543 0 7V12C0 13.1046 0.89543 14 2 14H7C8.10457 14 9 13.1046 9 12V7C9 5.89543 8.10457 5 7 5Z" fill="url(#paint4_radial_353_14293)" fill-opacity="0.3"/>
<path d="M3.79832 10.3717V12H2.67065V7H4.41277C5.03653 7 5.51133 7.13598 5.83718 7.40795C6.16535 7.67992 6.32944 8.08322 6.32944 8.61785C6.32944 9.16876 6.14557 9.59879 5.77783 9.90795C5.41242 10.2171 4.92132 10.3717 4.30454 10.3717H3.79832ZM3.79832 7.86471V9.50697H4.26963C4.54893 9.50697 4.76422 9.43375 4.9155 9.28731C5.06679 9.14086 5.14243 8.9305 5.14243 8.65621C5.14243 8.40284 5.06795 8.20758 4.91899 8.07043C4.77236 7.93329 4.56173 7.86471 4.28708 7.86471H3.79832Z" fill="white"/>
<path d="M7.99902 0.25C12.2788 0.25 15.749 3.71979 15.749 8C15.749 9.41903 15.365 10.7476 14.6992 11.8916L14.8213 11.6221C15.5879 9.91997 14.3424 7.99414 12.4756 7.99414H9.38086C8.61412 7.99396 7.99251 7.37127 7.99316 6.60449L7.99609 3.52539C7.9977 1.65606 6.06761 0.408644 4.36426 1.17871L4.13867 1.28125C5.27549 0.626495 6.59298 0.250058 7.99902 0.25Z" fill="url(#paint5_linear_353_14293)"/>
<path d="M7.99902 0.25C12.2788 0.25 15.749 3.71979 15.749 8C15.749 9.41903 15.365 10.7476 14.6992 11.8916L14.8213 11.6221C15.5879 9.91997 14.3424 7.99414 12.4756 7.99414H9.38086C8.61412 7.99396 7.99251 7.37127 7.99316 6.60449L7.99609 3.52539C7.9977 1.65606 6.06761 0.408644 4.36426 1.17871L4.13867 1.28125C5.27549 0.626495 6.59298 0.250058 7.99902 0.25Z" fill="url(#paint6_radial_353_14293)"/>
<path d="M7.99902 0.25C12.2788 0.25 15.749 3.71979 15.749 8C15.749 9.41903 15.365 10.7476 14.6992 11.8916L14.8213 11.6221C15.5879 9.91997 14.3424 7.99414 12.4756 7.99414H9.38086C8.61412 7.99396 7.99251 7.37127 7.99316 6.60449L7.99609 3.52539C7.9977 1.65606 6.06761 0.408644 4.36426 1.17871L4.13867 1.28125C5.27549 0.626495 6.59298 0.250058 7.99902 0.25Z" fill="url(#paint7_radial_353_14293)" fill-opacity="0.8"/>
<path d="M7.99902 0.25C12.2788 0.25 15.749 3.71979 15.749 8C15.749 9.41903 15.365 10.7476 14.6992 11.8916L14.8213 11.6221C15.5879 9.91997 14.3424 7.99414 12.4756 7.99414H9.38086C8.61412 7.99396 7.99251 7.37127 7.99316 6.60449L7.99609 3.52539C7.9977 1.65606 6.06761 0.408644 4.36426 1.17871L4.13867 1.28125C5.27549 0.626495 6.59298 0.250058 7.99902 0.25Z" fill="url(#paint8_radial_353_14293)"/>
<path d="M7.99902 0.25C12.2788 0.25 15.749 3.71979 15.749 8C15.749 9.41903 15.365 10.7476 14.6992 11.8916L14.8213 11.6221C15.5879 9.91997 14.3424 7.99414 12.4756 7.99414H9.38086C8.61412 7.99396 7.99251 7.37127 7.99316 6.60449L7.99609 3.52539C7.9977 1.65606 6.06761 0.408644 4.36426 1.17871L4.13867 1.28125C5.27549 0.626495 6.59298 0.250058 7.99902 0.25Z" fill="url(#paint9_radial_353_14293)"/>
</g>
</g>
<defs>
<linearGradient id="paint0_linear_353_14293" x1="7.21344" y1="-0.243412" x2="-2.28183" y2="8.84028" gradientUnits="userSpaceOnUse">
<stop offset="0.0582736" stop-color="#FF7F48"/>
<stop offset="1" stop-color="#E5495B"/>
</linearGradient>
<radialGradient id="paint1_radial_353_14293" cx="0" cy="0" r="1" gradientUnits="userSpaceOnUse" gradientTransform="translate(11.063 4.74736) rotate(135) scale(15.5601 26.1897)">
<stop offset="0.151523" stop-color="#AA1D2D"/>
<stop offset="0.380855" stop-color="#D12B18" stop-opacity="0.44"/>
<stop offset="0.601996" stop-color="#FF3C00" stop-opacity="0"/>
</radialGradient>
<radialGradient id="paint2_radial_353_14293" cx="0" cy="0" r="1" gradientUnits="userSpaceOnUse" gradientTransform="translate(-2.45446 14.2997) rotate(-25.2832) scale(14.7502 26.7221)">
<stop offset="0.4067" stop-color="#FF66FB"/>
<stop offset="1" stop-color="#EA3D01" stop-opacity="0"/>
</radialGradient>
<radialGradient id="paint3_radial_353_14293" cx="0" cy="0" r="1" gradientUnits="userSpaceOnUse" gradientTransform="translate(-0.00109863 5) rotate(45) scale(12.7279)">
<stop stop-color="#F8193E"/>
<stop offset="0.939062" stop-color="#920616"/>
</radialGradient>
<radialGradient id="paint4_radial_353_14293" cx="0" cy="0" r="1" gradientUnits="userSpaceOnUse" gradientTransform="translate(4.4989 10.4) rotate(90) scale(6.3 7.17188)">
<stop offset="0.575893" stop-color="#FFB055" stop-opacity="0"/>
<stop offset="0.973806" stop-color="#FFF2BE"/>
</radialGradient>
<linearGradient id="paint5_linear_353_14293" x1="9.47634" y1="9.71442" x2="17.8072" y2="3.54299" gradientUnits="userSpaceOnUse">
<stop offset="0.310768" stop-color="#FF6E30"/>
<stop offset="0.634576" stop-color="#FFA05C"/>
</linearGradient>
<radialGradient id="paint6_radial_353_14293" cx="0" cy="0" r="1" gradientTransform="matrix(9.79043 2.05259 -2.63998 9.19494 6.7118 8.91744)" gradientUnits="userSpaceOnUse">
<stop offset="0.78593" stop-color="#FFA05C" stop-opacity="0"/>
<stop offset="0.904889" stop-color="#FFCE84"/>
</radialGradient>
<radialGradient id="paint7_radial_353_14293" cx="0" cy="0" r="1" gradientUnits="userSpaceOnUse" gradientTransform="translate(8.28109 7.87556) rotate(-33.2109) scale(10.1022 9.66274)">
<stop offset="0.295239" stop-color="#FF99E9"/>
<stop offset="0.727968" stop-color="#FF99E9" stop-opacity="0"/>
</radialGradient>
<radialGradient id="paint8_radial_353_14293" cx="0" cy="0" r="1" gradientTransform="matrix(7.07457 -8.10354 7.55063 6.28842 7.14685 9.05747)" gradientUnits="userSpaceOnUse">
<stop stop-color="#FD6EF9"/>
<stop offset="0.637205" stop-color="#FF9944"/>
<stop offset="0.85186" stop-color="#FCC479"/>
</radialGradient>
<radialGradient id="paint9_radial_353_14293" cx="0" cy="0" r="1" gradientTransform="matrix(-0.79912 5.41766 -12.2501 -1.72374 6.44301 1.27314)" gradientUnits="userSpaceOnUse">
<stop offset="0.144283" stop-color="#FF8D13"/>
<stop offset="0.537266" stop-color="#FF7F29" stop-opacity="0"/>
</radialGradient>
<clipPath id="clip0_353_14293">
<rect width="16" height="16" fill="white"/>
</clipPath>
</defs>
</svg>
